<svg width="1047" height="900" viewBox="0 0 1047 900" fill="none" xmlns="http://www.w3.org/2000/svg">
<path d="M432.411 365.744C593.322 275.488 665.814 109.184 749.687 -79.1128L921.328 -163C921.328 -163 1223 -160.458 1223 -91.8229C1223 -23.1879 1156.5 151 1156.5 151C1156.5 151 917.48 232.044 852.027 365.744C776.782 519.446 799.368 638.267 736.684 752.134C674 866 370.487 873.095 291.5 736C212.513 598.905 271.5 456 432.411 365.744Z" fill="#FF7200" fill-opacity="0.37"/>
<path d="M280.248 378.664C515.677 236 651.908 12.481 786.495 -256.27L1061.92 -376C1061.92 -376 1546 -372.372 1546 -274.411C1546 -176.449 1494.5 127 1494.5 127C1494.5 127 1186.49 311.674 1005.93 433.499C854 536 866.216 767.63 765.63 930.148C665.043 1092.67 178.009 1102.79 51.2625 907.121C-75.484 711.449 44.8199 521.327 280.248 378.664Z" fill="#FF7200" fill-opacity="0.37"/>
</svg>
